<svg xmlns="http://www.w3.org/2000/svg" width="266.893" height="266.895" viewBox="0 0 266.893 266.895"><path fill="#FFF" d="M251.885.314H15.009C6.892.314.314 6.892.314 15.009v236.876c0 8.115 6.577 14.696 14.695 14.696h127.526V163.468h-34.699v-40.186h34.699V93.647c0-34.391 21.003-53.119 51.684-53.119 14.696 0 27.327 1.094 31.007 1.584v35.942l-21.278.009c-16.684 0-19.914 7.929-19.914 19.563v25.656h39.792l-5.182 40.186h-34.61v103.113h67.852c8.114 0 14.694-6.58 14.694-14.696V15.009C266.579 6.892 260 .314 251.885.314z"/></svg>