<svg width="200" height="40" viewBox="0 0 200 40" xmlns="http://www.w3.org/2000/svg" xmlns:xlink="http://www.w3.org/1999/xlink"><title>Logo</title><defs><path id="a" d="M38.963.365H0V39.29h38.963V.365z"/><path id="c" d="M0 39.405h199.661V.479H0z"/></defs><g fill="none" fill-rule="evenodd"><g transform="translate(0 .114)"><mask id="b" fill="#fff"><use xlink:href="#a"/></mask><path d="M34.787 19.687c0-3.767 1.2-7.958 4.176-10.877V.365H0V39.29h38.963v-8.736c-2.831-2.856-4.176-6.956-4.176-10.867" fill="#FFF" mask="url(#b)"/></g><mask id="d" fill="#fff"><use xlink:href="#c"/></mask><path d="M27.01 32.498h5.269V7.386h-5.27v25.112zM12.874 18.91V7.386h1.673a675.56 675.56 0 0 0 3.062 11.382c1.068 3.877 1.318 4.838 1.851 7.719.535-2.668.855-4.02 1.959-8.217.925-3.628 1.851-7.256 2.812-10.884h1.851v11.276L22.31 32.498h-5.661L12.875 18.91zm-6.23 13.588h5.305V7.386H6.645v25.112z" fill="#EC1D24" mask="url(#d)"/><path d="M75.885 12.05h6.62V7.39h-6.62v4.658zm-6.62 20.446h5.695V7.391h-5.696v25.105zM61.788 12.05h6.586V7.391h-6.586v4.658zM91.43 22.077V15.89l7.938-8.499h7.332l-11.497 11.38 12.067 13.725h-7.012l-8.827-10.419zm-6.584 10.42h5.695V7.39h-5.695v25.105zm31.037-9.247V18.7h2.599c1.957 0 5.125-.036 5.125-3.521 0-3.13-2.74-3.059-4.556-3.059h-3.168V7.391h4.023c2.42.036 4.77.071 6.727 1.494 2.491 1.849 2.491 4.694 2.491 5.44 0 3.912-2.385 5.796-4.484 6.08.712.214 1.85.534 2.669 1.992.534.96.605 1.387 1.21 5.156.391 2.418.89 3.628 1.815 4.943h-5.98c-.426-.747-.89-1.458-1.245-3.485-.178-.889-.249-1.849-.427-2.738-.57-2.81-1.887-3.022-4.129-3.022h-2.67zm-6.585 9.246h5.66V7.391h-5.66v25.105zm22.701 0l8.65-25.105h6.442l8.898 25.105h-6.37l-1.638-5.334h-7.048l1.352-4.587h4.307l-1.815-5.974c-.427-1.742-.498-2.027-.854-3.698-.32 1.635-.392 1.956-.819 3.556l-4.734 16.037H132zm33.209-10.561h10.357v-4.48h-10.357v4.48zm0-9.886h11.923V7.391h-11.923v4.658zm-6.585 20.447h5.659V7.391h-5.659v25.105zm34.418-20.446h6.62V7.39h-6.62v4.658zm-6.62 20.446h5.695V7.391h-5.695v25.105zm-7.475-20.447h6.585V7.391h-6.585v4.658zM49.182 6.68v4.765c3.88.498 6.086 3.343 6.086 8.392 0 1.991-.249 4.267-1.85 6.187-1.21 1.494-2.599 1.885-4.236 2.098v4.836c7.474-.391 11.995-5.76 11.995-13.192 0-4.338-1.815-12.41-11.995-13.086m-10.219 4.396c-1.89 2.426-2.737 5.575-2.737 8.725 0 3.115.9 6.243 2.737 8.67 1.98 2.615 5.047 4.414 9.258 4.487v-4.836c-1.638-.177-2.955-.604-4.13-2.062-1.886-2.312-1.922-5.227-1.922-6.294 0-3.414 1.247-7.717 6.052-8.32V6.68c-4.315.198-7.33 1.92-9.258 4.396" fill="#FFF" mask="url(#d)"/></g></svg>